<svg viewBox="0 0 35 35" xmlns="http://www.w3.org/2000/svg">
<path d="M17.0928 10.115V12.2517" fill="none" stroke-linecap="round" stroke-linejoin="round"/>
<path d="M17.0928 22.9351V25.0717" fill="none" stroke-linecap="round" stroke-linejoin="round"/>
<path d="M17.0935 30.4133C24.1738 30.4133 29.9135 24.6735 29.9135 17.5932C29.9135 10.5129 24.1738 4.77319 17.0935 4.77319C10.0132 4.77319 4.27344 10.5129 4.27344 17.5932C4.27344 24.6735 10.0132 30.4133 17.0935 30.4133Z" fill="none" stroke-linecap="round" stroke-linejoin="round"/>
<path d="M13.8877 22.9351H18.6952C19.4035 22.9351 20.0829 22.6537 20.5838 22.1528C21.0846 21.6519 21.366 20.9726 21.366 20.2642C21.366 19.5559 21.0846 18.8765 20.5838 18.3757C20.0829 17.8748 19.4035 17.5934 18.6952 17.5934H15.4902C14.7818 17.5934 14.1025 17.312 13.6016 16.8111C13.1007 16.3102 12.8193 15.6309 12.8193 14.9226C12.8193 14.2142 13.1007 13.5349 13.6016 13.034C14.1025 12.5331 14.7818 12.2517 15.4902 12.2517H20.2977" fill="none" stroke-linecap="round" stroke-linejoin="round"/>
</svg>
