<svg viewBox="0 0 33 32" xmlns="http://www.w3.org/2000/svg">
<g clip-path="url(#clip0_221_1302)">
<path d="M31.7036 11.6268C30.8753 9.78521 29.6746 8.11203 28.1679 6.70005C26.6648 5.28467 24.8837 4.15668 22.9232 3.37862C20.8865 2.56903 18.7282 2.16077 16.5 2.16077C14.2718 2.16077 12.1135 2.56903 10.0768 3.37862C8.11634 4.15668 6.33521 5.28467 4.83214 6.70005C3.32544 8.11203 2.12469 9.78521 1.29643 11.6268C0.434598 13.5401 0 15.5676 0 17.6608C0 22.252 2.14721 26.5767 5.88917 29.5314L5.95179 29.5799C6.1654 29.7459 6.43426 29.8393 6.71049 29.8393H26.2932C26.5694 29.8393 26.8383 29.7459 27.0519 29.5799L27.1145 29.5314C30.8528 26.5767 33 22.252 33 17.6608C33 15.5676 32.5617 13.5401 31.7036 11.6268ZM25.6855 27.2099H7.31451C5.89137 26.0044 4.75394 24.5314 3.97605 22.8863C3.19815 21.2412 2.79716 19.4609 2.79911 17.6608C2.79911 14.2217 4.22444 10.9902 6.81362 8.56144C9.40279 6.12918 12.8427 4.79023 16.5 4.79023C20.1609 4.79023 23.6009 6.12918 26.1864 8.56144C28.7756 10.9937 30.2009 14.2252 30.2009 17.6608C30.2009 21.3143 28.5619 24.7707 25.6855 27.2099ZM20.6066 12.8689C20.5512 12.8174 20.4764 12.7885 20.3985 12.7885C20.3206 12.7885 20.2458 12.8174 20.1904 12.8689L17.0782 15.7925C16.3895 15.6195 15.6271 15.7855 15.0857 16.2941C14.894 16.4739 14.7418 16.6875 14.638 16.9226C14.5342 17.1577 14.4808 17.4097 14.4808 17.6642C14.4808 17.9187 14.5342 18.1708 14.638 18.4059C14.7418 18.641 14.894 18.8545 15.0857 19.0343C15.2771 19.2145 15.5045 19.3574 15.7547 19.4549C16.005 19.5524 16.2733 19.6026 16.5442 19.6026C16.8151 19.6026 17.0834 19.5524 17.3337 19.4549C17.5839 19.3574 17.8113 19.2145 18.0027 19.0343C18.2592 18.7941 18.4436 18.4945 18.5374 18.1658C18.6312 17.8372 18.6309 17.4911 18.5367 17.1626L21.6489 14.239C21.7631 14.1318 21.7631 13.9553 21.6489 13.848L20.6066 12.8689ZM15.6897 9.3572H17.3103C17.4723 9.3572 17.6049 9.23264 17.6049 9.08041V6.31255C17.6049 6.16032 17.4723 6.03577 17.3103 6.03577H15.6897C15.5277 6.03577 15.3951 6.16032 15.3951 6.31255V9.08041C15.3951 9.23264 15.5277 9.3572 15.6897 9.3572ZM25.2656 16.8996V18.4219C25.2656 18.5742 25.3982 18.6987 25.5603 18.6987H28.5067C28.6688 18.6987 28.8013 18.5742 28.8013 18.4219V16.8996C28.8013 16.7474 28.6688 16.6228 28.5067 16.6228H25.5603C25.3982 16.6228 25.2656 16.7474 25.2656 16.8996ZM25.7334 10.0768L24.5879 9.00083C24.5326 8.94932 24.4578 8.92043 24.3799 8.92043C24.3019 8.92043 24.2271 8.94932 24.1718 9.00083L22.0872 10.9591C22.0323 11.0111 22.0016 11.0814 22.0016 11.1546C22.0016 11.2278 22.0323 11.298 22.0872 11.3501L23.2326 12.4261C23.3468 12.5333 23.5346 12.5333 23.6488 12.4261L25.7334 10.4678C25.8475 10.3605 25.8475 10.1841 25.7334 10.0768ZM8.84297 9.00083C8.78759 8.94932 8.71281 8.92043 8.63488 8.92043C8.55695 8.92043 8.48216 8.94932 8.42679 9.00083L7.28136 10.0768C7.22653 10.1289 7.19577 10.1991 7.19577 10.2723C7.19577 10.3455 7.22653 10.4158 7.28136 10.4678L9.36596 12.4261C9.48013 12.5333 9.66797 12.5333 9.78214 12.4261L10.9276 11.3501C11.0417 11.2428 11.0417 11.0663 10.9276 10.9591L8.84297 9.00083ZM7.29241 16.6228H4.34598C4.18393 16.6228 4.05134 16.7474 4.05134 16.8996V18.4219C4.05134 18.5742 4.18393 18.6987 4.34598 18.6987H7.29241C7.45446 18.6987 7.58705 18.5742 7.58705 18.4219V16.8996C7.58705 16.7474 7.45446 16.6228 7.29241 16.6228Z" strokeWidth="0"/>
</g>
<defs>
<clipPath id="clip0_221_1302">
<rect width="33" height="31" transform="translate(0 0.5)"/>
</clipPath>
</defs>
</svg>
