<?xml version="1.0" encoding="UTF-8"?>
<!-- Created with Inkscape (http://www.inkscape.org/) -->
<svg width="39.618mm" height="39.581mm" version="1.1" viewBox="0 0 39.618 39.581" xmlns="http://www.w3.org/2000/svg">
 <g transform="translate(-82.39 -70.893)">
  <g transform="translate(-62.793 -93.127)">
   <path d="m178.18 176.2c-0.55601-0.33904-0.55812-0.34959-0.55812-2.788v-2.2159h-4.4573l-0.26813-0.22562c-0.14747-0.12408-0.31366-0.37759-0.36931-0.56335-0.087-0.29024-0.0773-0.38374 0.0686-0.66489 0.31701-0.61085 0.49175-0.65004 2.899-0.65004h2.1272l3e-3 -2.1696c3e-3 -2.3478 0.0191-2.4371 0.48494-2.7442 0.33078-0.21805 0.70819-0.21561 1.0732 7e-3 0.49757 0.30336 0.54261 0.53943 0.54261 2.844v2.0629h2.0629c2.3045 0 2.5406 0.045 2.844 0.54262 0.21105 0.34616 0.22573 0.6879 0.0446 1.0382-0.25324 0.48972-0.43191 0.52311-2.7994 0.52311h-2.1521v2.1272c0 2.3871-0.0402 2.5743-0.61904 2.8847-0.37897 0.20325-0.58324 0.2015-0.92673-8e-3z"/>
   <path d="m152.11 203.53c-0.36161-0.0456-1.0125-0.20127-1.4464-0.34598-2.9928-0.99809-5.066-3.5874-5.3863-6.727-0.12529-1.2283-0.12601-18.954-8.2e-4 -20.174 0.34744-3.3857 2.6504-6.063 5.9729-6.9439 0.71908-0.19063 0.83041-0.19373 8.049-0.22395 4.0259-0.0169 7.4465-7e-3 7.6013 0.0212 0.36506 0.0673 0.79282 0.4991 0.86254 0.87075 0.0613 0.32674-0.0879 0.69003-0.39906 0.97174-0.18926 0.17134-0.35421 0.17615-7.6575 0.22314-8.3499 0.0537-7.834 0.0143-9.2491 0.70712-0.90089 0.44107-1.7423 1.237-2.2916 2.1677l-0.3799 0.64367 6.8744 6.8551c7.3909 7.3702 7.2925 7.2823 8.6276 7.7053 0.50458 0.15988 0.81616 0.19415 1.7532 0.19285 1.0449-1e-3 1.2018-0.0237 1.8886-0.26824 1.3263-0.47217 1.2042-0.36774 6.0052-5.137 2.8566-2.8378 2.9988-2.965 3.3136-2.965 0.67025 0 1.1092 0.43961 1.1092 1.1109 0 0.31846-0.1331 0.46408-3.6161 3.9562-1.9888 1.994-3.8589 3.8007-4.1558 4.0149-2.5189 1.8171-5.9097 1.9475-8.644 0.33251-0.64947-0.3836-1.3681-1.0701-7.1434-6.8241l-6.4213-6.3976v9.6039c0 9.2715 6e-3 9.6273 0.17287 10.28 0.51222 2.0027 2.0838 3.5757 4.0837 4.0872 0.66371 0.16974 0.99596 0.17403 13.4 0.17277 11.039-1e-3 12.793-0.0188 13.281-0.13379 1.6215-0.38222 3.0371-1.5306 3.7777-3.0646 0.62538-1.2954 0.61314-1.0932 0.61314-10.132v-8.0789l0.34034-0.34034c0.28553-0.28553 0.39867-0.34034 0.70258-0.34034 0.29025 0 0.42734 0.0597 0.6897 0.3001l0.32745 0.3001v8.488c0 8.484-9e-5 8.4884-0.19365 9.1951-0.38071 1.39-1.0045 2.4962-1.9922 3.5327-0.99455 1.0437-2.3408 1.8246-3.8283 2.2207l-0.73579 0.19594-12.623 0.015c-7.5043 9e-3 -12.89-0.0186-13.281-0.0679z"/>
  </g>
 </g>
</svg>
