<?xml version="1.0" encoding="UTF-8"?>
<!-- Created with Inkscape (http://www.inkscape.org/) -->
<svg width="42.629mm" height="42.676mm" version="1.1" viewBox="0 0 42.629 42.676" xmlns="http://www.w3.org/2000/svg">
 <g transform="translate(-112.93 -110.64)">
  <path d="m120.24 153.21c-1.0028-0.14314-2.3397-0.59487-3.1324-1.0584-0.98716-0.57727-2.3296-1.8843-2.9382-2.8607-0.27898-0.44761-0.66131-1.2443-0.84963-1.7705l-0.34239-0.95667-0.0309-8.1328c-0.03-7.8802-0.024-8.1604 0.19385-9.0232 0.2737-1.0842 0.80561-2.2207 1.4294-3.0542 0.51687-0.69066 13.902-13.56 14.725-14.158 0.75158-0.54577 2.1584-1.1792 3.0709-1.3828 1.1154-0.24881 2.8661-0.23116 3.9247 0.0395 1.2502 0.31976 2.6443 1.0854 3.6615 2.0111 0.47579 0.43296 3.7455 3.5502 7.2661 6.9272 6.6903 6.4175 7.0836 6.8432 7.6806 8.3122 0.68884 1.6953 0.66356 1.3148 0.66356 9.9878 0 8.9586 0.0301 8.6002-0.87759 10.454-1.2625 2.5779-3.6772 4.3006-6.55 4.6729-1.0269 0.13308-26.959 0.12628-27.895-8e-3zm28.665-2.2309c1.7668-0.59461 3.2052-1.8015 3.9061-3.2774 0.70549-1.4856 0.71148-1.5652 0.7136-9.4946 1e-3 -6.1559-0.0233-7.2919-0.18005-8.1978-0.10005-0.57843-0.22448-1.0993-0.27643-1.1576-0.0569-0.0636-2.8446 2.6362-6.998 6.7772l-6.9036 6.8831-1.0153 0.51662c-1.3582 0.69113-2.4046 0.94911-3.8498 0.94911-1.8106 0-3.4015-0.47169-4.8375-1.4343-0.29203-0.19577-3.5621-3.3799-7.2668-7.0758-3.7047-3.6959-6.7616-6.694-6.7932-6.6625-0.0315 0.0315-0.14471 0.45006-0.25156 0.93013-0.1753 0.78755-0.19429 1.6094-0.19429 8.4105 0 8.2539-0.0113 8.0946 0.66484 9.5183 0.8503 1.7909 2.7059 3.1672 4.6666 3.4612 0.33586 0.0503 6.7755 0.0839 14.31 0.0746 13.015-0.0162 13.73-0.0271 14.305-0.22066zm-13.106-9.2612c0.38715-0.0913 1.0556-0.34677 1.4855-0.56782 0.71234-0.3663 1.3887-1.0071 7.6322-7.2304 3.7678-3.7556 6.8379-6.8657 6.8224-6.9112-0.0156-0.0454-2.207-2.1701-4.8699-4.7213-9.1064-8.7243-8.8415-8.4819-9.7465-8.921-1.0691-0.51868-1.8093-0.68405-3.018-0.67417-1.1669 0.01-2.3508 0.35754-3.3155 0.97463-0.33131 0.21193-1.7016 1.4396-3.045 2.7282-1.3434 1.2886-4.3738 4.1918-6.7341 6.4516-2.3603 2.2598-4.3041 4.1391-4.3195 4.1762-0.0154 0.037 2.9804 3.0701 6.6573 6.7401 4.6432 4.6344 6.8974 6.8083 7.3796 7.1166 0.60173 0.38478 1.5336 0.76664 2.2768 0.93296 0.51097 0.11435 2.1429 0.0592 2.7946-0.0944z"/>
 </g>
</svg>
