<?xml version="1.0" encoding="UTF-8"?>
<!-- Created with Inkscape (http://www.inkscape.org/) -->
<svg width="38.308mm" height="35.214mm" version="1.1" viewBox="0 0 38.308 35.214" xmlns="http://www.w3.org/2000/svg">
 <g transform="translate(-80.988 -61.922)">
  <path d="m80.988 91.572v-23.428c0-2.5629 3.5589-5.726 6.0135-6.0252 0.64257-0.13752 4.6706-0.19804 13.062-0.19625 12.985 3e-3 13.362 0.0252 15.067 0.89522 1.0103 0.5154 2.6154 2.0879 3.1685 3.1042 0.98596 1.8115 0.99779 1.9731 0.99779 13.618 0 11.458-0.0181 11.729-0.89772 13.454-0.96861 1.8986-3.3487 3.5752-5.5558 3.977-1.2597 0.22934-19.018 0.15323-25.283 0.15323-2.8845 0-6.4819-3.1767-6.5718-5.5523zm36.036-0.35767c0.33372-1.1024 0.34739-1.5948 0.30308-10.914l-0.0464-9.7594-6.3994 6.2992c-6.9428 6.8342-7.3205 7.1312-9.6123 7.5574-0.8555 0.1591-1.3901 0.15806-2.3382-5e-3 -2.4792-0.42512-2.5969-0.51709-9.6624-7.5498l-6.4473-6.4174 0.04796 10.343s0.04795 9.3777 0.04795 10.474c0 1.9935 2.7001 3.4555 4.5088 3.7973 0.50943 0.087 6.4508 0.14585 13.203 0.13089 0 0 11.011-0.0256 11.751-0.0272 1.7222-4e-3 4.1302-2.314 4.6445-3.9294zm-14.479-9.2105c0.67555-0.33277 2.4988-2.0511 7.6999-7.2572l6.8147-6.8212-0.22342-0.67697c-0.33727-1.0219-1.9729-2.5672-3.1513-2.9772-0.91341-0.3178-1.6162-0.33489-13.765-0.33489h-12.802c-1.5909 0-4.1337 2.7141-4.1412 4.0021l6.6328 6.645c3.6481 3.6547 6.9823 6.8529 7.4094 7.1071 1.7126 1.0191 3.8479 1.1401 5.5266 0.31317z"/>
 </g>
</svg>
