<svg viewBox="0 0 33 31" xmlns="http://www.w3.org/2000/svg">
<path d="M16.6328 22.3726C20.3607 22.3726 23.3828 19.3505 23.3828 15.6226C23.3828 11.8946 20.3607 8.87256 16.6328 8.87256C12.9049 8.87256 9.88281 11.8946 9.88281 15.6226C9.88281 19.3505 12.9049 22.3726 16.6328 22.3726Z" fill="none"  stroke-linecap="round" stroke-linejoin="round"/>
<path d="M26.3916 8.97114C26.7301 9.45584 27.0265 9.96865 27.2775 10.504L30.9197 12.529C31.3745 14.5659 31.3793 16.6775 30.9337 18.7165L27.2775 20.7415C27.0265 21.2768 26.7301 21.7896 26.3916 22.2743L26.4619 26.4508C24.9183 27.8574 23.0914 28.9171 21.1041 29.5586L17.5181 27.4071C16.9282 27.4493 16.3361 27.4493 15.7462 27.4071L12.1744 29.5446C10.1807 28.9147 8.34781 27.8591 6.80249 26.4508L6.87281 22.2883C6.53709 21.7969 6.24085 21.2797 5.98687 20.7415L2.34468 18.7165C1.8899 16.6795 1.8851 14.5679 2.33062 12.529L5.98687 10.504C6.23786 9.96865 6.53426 9.45584 6.87281 8.97114L6.80249 4.79458C8.34607 3.388 10.173 2.3283 12.1603 1.68677L15.7462 3.83833C16.3361 3.79614 16.9282 3.79614 17.5181 3.83833L21.09 1.70083C23.0836 2.33068 24.9165 3.3863 26.4619 4.79458L26.3916 8.97114Z" fill="none" stroke-linecap="round" stroke-linejoin="round"/>
</svg>
