<svg viewBox="0 0 25 22" xmlns="http://www.w3.org/2000/svg">
<path d="M24.75 0H9.25C9.1125 0 9 0.111864 9 0.248588V1.9887C9 2.12542 9.1125 2.23729 9.25 2.23729H24.75C24.8875 2.23729 25 2.12542 25 1.9887V0.248588C25 0.111864 24.8875 0 24.75 0ZM24.75 13.1751H9.25C9.1125 13.1751 9 13.287 9 13.4237V15.1638C9 15.3006 9.1125 15.4124 9.25 15.4124H24.75C24.8875 15.4124 25 15.3006 25 15.1638V13.4237C25 13.287 24.8875 13.1751 24.75 13.1751ZM24.75 19.7627H0.25C0.1125 19.7627 0 19.8746 0 20.0113V21.7514C0 21.8881 0.1125 22 0.25 22H24.75C24.8875 22 25 21.8881 25 21.7514V20.0113C25 19.8746 24.8875 19.7627 24.75 19.7627ZM24.75 6.58757H0.25C0.1125 6.58757 0 6.69943 0 6.83616V8.57627C0 8.71299 0.1125 8.82486 0.25 8.82486H24.75C24.8875 8.82486 25 8.71299 25 8.57627V6.83616C25 6.69943 24.8875 6.58757 24.75 6.58757Z"/>
<path d="M24.75 0H9.25C9.1125 0 9 0.111864 9 0.248588V1.9887C9 2.12542 9.1125 2.23729 9.25 2.23729H24.75C24.8875 2.23729 25 2.12542 25 1.9887V0.248588C25 0.111864 24.8875 0 24.75 0ZM24.75 13.1751H9.25C9.1125 13.1751 9 13.287 9 13.4237V15.1638C9 15.3006 9.1125 15.4124 9.25 15.4124H24.75C24.8875 15.4124 25 15.3006 25 15.1638V13.4237C25 13.287 24.8875 13.1751 24.75 13.1751ZM24.75 19.7627H0.25C0.1125 19.7627 0 19.8746 0 20.0113V21.7514C0 21.8881 0.1125 22 0.25 22H24.75C24.8875 22 25 21.8881 25 21.7514V20.0113C25 19.8746 24.8875 19.7627 24.75 19.7627ZM24.75 6.58757H0.25C0.1125 6.58757 0 6.69943 0 6.83616V8.57627C0 8.71299 0.1125 8.82486 0.25 8.82486H24.75C24.8875 8.82486 25 8.71299 25 8.57627V6.83616C25 6.69943 24.8875 6.58757 24.75 6.58757Z"/>
</svg>
