<svg viewBox="0 0 26 26" xmlns="http://www.w3.org/2000/svg">
<path d="M13 25C19.6274 25 25 19.6274 25 13C25 6.37258 19.6274 1 13 1C6.37258 1 1 6.37258 1 13C1 19.6274 6.37258 25 13 25Z" fill="none"  stroke-linecap="round" stroke-linejoin="round"/>
<path d="M14.675 13.5749C15.358 13.2026 15.8975 12.6135 16.2083 11.9005C16.5192 11.1874 16.5837 10.3912 16.3916 9.63744C16.1995 8.8837 15.7619 8.21541 15.1477 7.73811C14.5335 7.26082 13.7778 7.00171 13 7.00171C12.2222 7.00171 11.4665 7.26082 10.8523 7.73811C10.2381 8.21541 9.80046 8.8837 9.60839 9.63744C9.41632 10.3912 9.4808 11.1874 9.79165 11.9005C10.1025 12.6135 10.642 13.2026 11.325 13.5749L9.6 17.5999C9.53372 17.7517 9.50621 17.9177 9.51996 18.0828C9.53371 18.248 9.58827 18.4071 9.67875 18.5459C9.76923 18.6847 9.89279 18.7989 10.0383 18.8781C10.1839 18.9574 10.3468 18.9992 10.5125 18.9999H15.4875C15.6532 18.9992 15.8161 18.9574 15.9617 18.8781C16.1072 18.7989 16.2308 18.6847 16.3212 18.5459C16.4117 18.4071 16.4663 18.248 16.48 18.0828C16.4938 17.9177 16.4663 17.7517 16.4 17.5999L14.675 13.5749Z" fill="none"  stroke-linecap="round" stroke-linejoin="round"/>
</svg>
