<svg viewBox="0 0 36 37" xmlns="http://www.w3.org/2000/svg">
<path d="M30.9375 25.3385V12.0354C30.9364 11.8351 30.8826 11.6386 30.7813 11.4658C30.6801 11.293 30.5351 11.1499 30.3609 11.051L18.5484 4.37132C18.3817 4.27505 18.1925 4.22437 18 4.22437C17.8075 4.22437 17.6183 4.27505 17.4516 4.37132L5.63906 11.051C5.4649 11.1499 5.31989 11.293 5.21867 11.4658C5.11744 11.6386 5.06358 11.8351 5.0625 12.0354V25.3385C5.06358 25.5388 5.11744 25.7353 5.21867 25.9081C5.31989 26.0809 5.4649 26.224 5.63906 26.3229L17.4516 33.0026C17.6183 33.0988 17.8075 33.1495 18 33.1495C18.1925 33.1495 18.3817 33.0988 18.5484 33.0026L30.3609 26.3229C30.5351 26.224 30.6801 26.0809 30.7813 25.9081C30.8826 25.7353 30.9364 25.5388 30.9375 25.3385V25.3385Z" fill="none" stroke-linecap="round" stroke-linejoin="round"/>
<path d="M18 23.7493C20.7959 23.7493 23.0625 21.4827 23.0625 18.6868C23.0625 15.8908 20.7959 13.6243 18 13.6243C15.2041 13.6243 12.9375 15.8908 12.9375 18.6868C12.9375 21.4827 15.2041 23.7493 18 23.7493Z" fill="none" stroke-linecap="round" stroke-linejoin="round"/>
</svg>
