<svg viewBox="0 0 46 48" xmlns="http://www.w3.org/2000/svg">
<path d="M43.5437 39.15C42.4068 36.4571 40.757 34.011 38.6861 31.948C36.6215 29.8791 34.1758 28.2295 31.4841 27.0904C31.46 27.0784 31.4359 27.0723 31.4118 27.0603C35.1664 24.3482 37.6073 19.9306 37.6073 14.9464C37.6073 6.68973 30.9176 0 22.6609 0C14.4042 0 7.71444 6.68973 7.71444 14.9464C7.71444 19.9306 10.1553 24.3482 13.91 27.0663C13.8859 27.0784 13.8618 27.0844 13.8377 27.0964C11.1377 28.2355 8.71488 29.8688 6.63564 31.954C4.5667 34.0186 2.91714 36.4643 1.77805 39.156C0.659012 41.7913 0.0554882 44.6166 0.000150706 47.479C-0.00145787 47.5433 0.00982443 47.6073 0.0333332 47.6672C0.0568419 47.7271 0.0921012 47.7817 0.137033 47.8278C0.181966 47.8738 0.235662 47.9104 0.294958 47.9354C0.354254 47.9604 0.41795 47.9732 0.482294 47.9732H4.09836C4.36354 47.9732 4.57448 47.7623 4.58051 47.5031C4.70104 42.8505 6.56935 38.4931 9.87202 35.1904C13.2892 31.7732 17.8274 29.8929 22.6609 29.8929C27.4943 29.8929 32.0325 31.7732 35.4497 35.1904C38.7524 38.4931 40.6207 42.8505 40.7412 47.5031C40.7472 47.7683 40.9582 47.9732 41.2234 47.9732H44.8394C44.9038 47.9732 44.9675 47.9604 45.0268 47.9354C45.0861 47.9104 45.1398 47.8738 45.1847 47.8278C45.2296 47.7817 45.2649 47.7271 45.2884 47.6672C45.3119 47.6073 45.3232 47.5433 45.3216 47.479C45.2613 44.5982 44.6647 41.7958 43.5437 39.15ZM22.6609 25.3125C19.8946 25.3125 17.291 24.2337 15.3323 22.275C13.3736 20.3163 12.2948 17.7127 12.2948 14.9464C12.2948 12.1801 13.3736 9.57656 15.3323 7.61786C17.291 5.65915 19.8946 4.58036 22.6609 4.58036C25.4272 4.58036 28.0307 5.65915 29.9894 7.61786C31.9481 9.57656 33.0269 12.1801 33.0269 14.9464C33.0269 17.7127 31.9481 20.3163 29.9894 22.275C28.0307 24.2337 25.4272 25.3125 22.6609 25.3125Z"/>
</svg>
