<svg viewBox="0 0 32 34" xmlns="http://www.w3.org/2000/svg">
<path d="M31.5775 21.3813L29.1063 19.3187C29.2233 18.6189 29.2837 17.9043 29.2837 17.1898C29.2837 16.4752 29.2233 15.7606 29.1063 15.0608L31.5775 12.9982C31.7638 12.8424 31.8972 12.6349 31.9599 12.4033C32.0226 12.1717 32.0116 11.927 31.9283 11.7016L31.8944 11.6059C31.2141 9.7496 30.1954 8.0288 28.8875 6.52663L28.8196 6.44928C28.661 6.26715 28.4495 6.13622 28.2131 6.07376C27.9767 6.01129 27.7265 6.02022 27.4954 6.09936L24.4282 7.16384C23.2964 6.25775 22.0325 5.54319 20.6668 5.04226L20.0745 1.91146C20.0298 1.67589 19.9128 1.45916 19.7389 1.29008C19.5651 1.121 19.3426 1.00757 19.1012 0.964856L18.9993 0.94644C17.0337 0.60021 14.9663 0.60021 13.0007 0.94644L12.8988 0.964856C12.6574 1.00757 12.4349 1.121 12.2611 1.29008C12.0872 1.45916 11.9702 1.67589 11.9255 1.91146L11.3294 5.05699C9.97459 5.55802 8.71292 6.2722 7.59444 7.1712L4.5046 6.09936C4.27359 6.01959 4.02317 6.01034 3.78664 6.07284C3.55011 6.13534 3.33866 6.26664 3.18039 6.44928L3.11248 6.52663C1.80617 8.02987 0.787655 9.75038 0.105643 11.6059L0.0716888 11.7016C-0.0980824 12.1621 0.0415073 12.6777 0.422549 12.9982L2.92385 15.0829C2.80689 15.7754 2.7503 16.4826 2.7503 17.1861C2.7503 17.8933 2.80689 18.6005 2.92385 19.2892L0.422549 21.374C0.236162 21.5298 0.102762 21.7372 0.0400887 21.9688C-0.0225851 22.2004 -0.0115633 22.4452 0.0716888 22.6705L0.105643 22.7663C0.788501 24.6226 1.79958 26.3354 3.11248 27.8455L3.18039 27.9229C3.33905 28.105 3.5505 28.2359 3.7869 28.2984C4.02329 28.3609 4.27351 28.3519 4.5046 28.2728L7.59444 27.2009C8.7187 28.1033 9.97501 28.8179 11.3294 29.3151L11.9255 32.4607C11.9702 32.6963 12.0872 32.913 12.2611 33.0821C12.4349 33.2511 12.6574 33.3646 12.8988 33.4073L13.0007 33.4257C14.9843 33.7738 17.0157 33.7738 18.9993 33.4257L19.1012 33.4073C19.3426 33.3646 19.5651 33.2511 19.7389 33.0821C19.9128 32.913 20.0298 32.6963 20.0745 32.4607L20.6668 29.3299C22.032 28.8303 23.303 28.1134 24.4282 27.2083L27.4954 28.2728C27.7264 28.3526 27.9768 28.3618 28.2134 28.2993C28.4499 28.2368 28.6613 28.1055 28.8196 27.9229L28.8875 27.8455C30.2004 26.3317 31.2115 24.6226 31.8944 22.7663L31.9283 22.6705C32.0981 22.2174 31.9585 21.7018 31.5775 21.3813ZM26.4277 15.4954C26.522 16.0516 26.5711 16.6225 26.5711 17.1934C26.5711 17.7643 26.522 18.3353 26.4277 18.8914L26.1787 20.3684L28.9969 22.7221C28.5697 23.683 28.0304 24.5926 27.3898 25.433L23.8887 24.2212L22.7041 25.1714C21.8024 25.8934 20.7989 26.4606 19.7123 26.8584L18.2749 27.3851L17.5996 30.9579C16.5341 31.0758 15.4584 31.0758 14.3928 30.9579L13.7175 27.3777L12.2914 26.8437C11.2162 26.4459 10.2165 25.8786 9.32233 25.1604L8.13771 24.2064L4.61401 25.4293C3.97265 24.5858 3.43693 23.676 3.00684 22.7184L5.85523 20.3427L5.61 18.8693C5.51946 18.3205 5.47041 17.7533 5.47041 17.1934C5.47041 16.6299 5.51569 16.0664 5.61 15.5175L5.85523 14.0442L3.00684 11.6685C3.43316 10.7072 3.97265 9.80107 4.61401 8.9576L8.13771 10.1805L9.32233 9.22648C10.2165 8.50824 11.2162 7.94101 12.2914 7.54321L13.7213 7.0165L14.3966 3.43634C15.4567 3.31848 16.5395 3.31848 17.6034 3.43634L18.2787 7.00914L19.7161 7.53585C20.7989 7.93364 21.8062 8.50087 22.7078 9.2228L23.8925 10.1731L27.3935 8.96128C28.0349 9.80476 28.5706 10.7145 29.0007 11.6722L26.1825 14.0258L26.4277 15.4954ZM16.0038 10.3425C12.3367 10.3425 9.36383 13.2449 9.36383 16.8251C9.36383 20.4053 12.3367 23.3077 16.0038 23.3077C19.6708 23.3077 22.6437 20.4053 22.6437 16.8251C22.6437 13.2449 19.6708 10.3425 16.0038 10.3425ZM18.9917 19.7423C18.5998 20.126 18.1341 20.4303 17.6213 20.6376C17.1085 20.8449 16.5588 20.9512 16.0038 20.9504C14.8757 20.9504 13.8156 20.5195 13.0158 19.7423C12.6228 19.3597 12.3111 18.905 12.0987 18.4043C11.8864 17.9037 11.7775 17.367 11.7784 16.8251C11.7784 15.7238 12.2198 14.6888 13.0158 13.9079C13.8156 13.1271 14.8757 12.6998 16.0038 12.6998C17.1318 12.6998 18.1919 13.1271 18.9917 13.9079C19.3848 14.2906 19.6964 14.7453 19.9088 15.2459C20.1212 15.7465 20.2301 16.2832 20.2292 16.8251C20.2292 17.9264 19.7878 18.9614 18.9917 19.7423Z"/>
</svg>
