<svg viewBox="0 0 33 33" xmlns="http://www.w3.org/2000/svg">
<path d="M5.15625 8.25V24.75C5.15625 25.297 5.37355 25.8216 5.76034 26.2084C6.14714 26.5952 6.67174 26.8125 7.21875 26.8125H27.8438C28.1173 26.8125 28.3796 26.7039 28.573 26.5105C28.7664 26.3171 28.875 26.0548 28.875 25.7812V11.3438C28.875 11.0702 28.7664 10.8079 28.573 10.6145C28.3796 10.4211 28.1173 10.3125 27.8438 10.3125H7.21875C6.67174 10.3125 6.14714 10.0952 5.76034 9.70841C5.37355 9.32161 5.15625 8.79701 5.15625 8.25ZM5.15625 8.25C5.15625 7.70299 5.37355 7.17839 5.76034 6.79159C6.14714 6.4048 6.67174 6.1875 7.21875 6.1875H24.75" stroke-width="0" stroke-linecap="round" stroke-linejoin="round" fill="none"/>
</svg>
