<?xml version="1.0" encoding="UTF-8"?>
<svg version="1.1" viewBox="0 0 1557.22 374.10757" xmlns="http://www.w3.org/2000/svg">
 <g transform="translate(1.6484732,-239.99625)">
  <g>
   <path d="m936.79145 240.02771c-15.89099 1.69975-33.97396-3.19419-48.52377 4.88532-15.23692 9.74554-9.86748 30.09802-11.45287 45.13134-0.25409 98.05484-1.4562 196.15404 0.70144 294.18686 0.20373 10.72265 0.90504 26.33314 14.47626 28.35356 21.65741 1.61038 43.90627 2.63274 65.41461-0.62143 10.41839-3.03475 15.87729-13.50728 14.29373-23.91549 2.42419-28.32476-2.10884-57.29863 3.34209-85.17126 5.16014-16.03571 25.90256-12.72336 38.89906-13.62375 40.8439-0.88755 85.624 4.4673 121.8036-18.84395 35.3727-20.09746 58.3688-59.83995 56.943-100.66007 2.0727-29.36036-6.2485-59.1834-25.1641-82.01346-17.2888-24.55989-45.3164-38.28298-74.1566-43.98892-31.1498-5.53509-63.1838-2.37387-94.68821-3.6726-20.6293-0.082-41.25887-0.10177-61.88824-0.0461zm79.62885 84.49919c19.6267 1.67421 40.5826-2.63376 59.234 4.84038 18.765 7.9029 24.713 31.63401 18.9536 49.69549-3.2675 13.45548-21.4744 26.33194-28.3272 26.62461-26.3403-0.76507-53.2348 3.05992-79.23596-1.01131-16.86585-6.25898-14.37951-26.80432-14.59402-41.17892 0.5529-12.18774-2.11009-31.4371 12.9244-36.23748 10.04875-3.05467 20.67608-2.56182 31.04518-2.73277z" style="font-variation-settings:'wght' 700;paint-order:markers stroke fill"/>
   <path d="m59.365669 253.35344c-21.730722 3.24765-36.284933 22.56076-50.185894 37.7873-11.27875 12.41658-15.460204 32.2025-4.1527962 46.03188 25.309186 35.42718 59.966693 63.46223 87.506454 96.61945-14.459532 20.91276-34.834422 37.3853-51.665434 56.42878-14.599074 18.01953-37.353261 32.34185-42.050342 56.48011-2.2212983 25.02397 19.806333 43.47986 37.445922 57.56864 13.327988 11.36148 35.555868 13.55052 47.663454-0.85024 31.449587-26.97121 58.469127-58.88978 90.327877-85.28158 5.26498-0.33025 7.8269 8.72649 12.4104 11.14013 27.19905 26.60478 52.03378 56.11249 82.41346 79.20643 18.44584 13.33907 40.76494-1.42361 54.32249-14.73081 14.31648-14.15137 32.01644-35.90578 20.88147-56.98417-20.29983-33.03102-51.49811-57.51696-76.70731-86.60611-3.54878-5.55435-12.51585-10.64874-12.80822-16.89901 27.79561-34.65126 63.72079-62.48333 88.98021-99.20382 11.94769-20.36244-4.09518-42.49931-18.31338-56.62851-12.96547-13.42681-31.6232-30.46817-51.6197-20.99753-23.57526 15.22146-41.93158 37.45063-62.05664 56.83067-12.77512 12.35383-23.95885 27.38392-37.54022 38.31139-25.04492-19.88781-44.79579-45.82451-68.33832-67.50725-13.706763-11.51066-27.08468-29.88344-46.513481-30.71575z" style="font-variation-settings:'wght' 700;paint-order:markers stroke fill"/>
   <path d="m648.10468 241.47894c-18.12793-0.21875-34.82495 10.4855-47.22849 22.742-68.15077 79.01589-139.31698 155.31668-207.44281 234.33227-12.88757 14.06365-22.36719 32.36586-19.05633 51.94744 1.3152 17.81594 8.86227 35.54942 24.50147 45.3006 22.47436 17.88445 58.84068 15.86182 78.27368-5.70516 47.45394-49.21763 91.10257-101.99969 137.09646-152.58343 11.80297-12.80292 22.93282-26.89599 35.98611-38.17988 29.44478 27.05205 53.05074 60.50306 85.08692 84.69011 16.12209 8.85477 36.83217 7.8518 53.73849 1.60223 23.9981-11.92315 39.80001-39.05255 35.46256-65.98737-0.81385-8.43406-3.88346-16.4338-8.11225-23.59553-26.69012-45.20138-71.15193-77.2212-105.6764-116.75726-16.62797-17.41821-36.19879-39.25584-62.62941-37.80602z" style="font-variation-settings:'wght' 700;paint-order:markers stroke fill"/>
   <path d="m1299.3646 240.0302c-15.891 1.69975-33.974-3.19419-48.5238 4.88532-15.2369 9.74554-9.8675 30.09801-11.4529 45.13133-0.2541 98.05484-1.4562 196.15405 0.7015 294.18686 0.2037 10.72265 0.905 26.33315 14.4762 28.35357 21.6574 1.61037 43.9063 2.63273 65.4146-0.62143 10.4184-3.03475 15.8773-13.50729 14.2938-23.9155 2.4242-28.32476-2.1089-57.29863 3.3421-85.17126 5.1601-16.03571 25.9025-12.72335 38.899-13.62375 40.8439-0.88754 85.624 4.46731 121.8036-18.84395 35.3727-20.09745 58.3688-59.83995 56.943-100.66006 2.0727-29.36036-6.2485-59.18341-25.1641-82.01347-17.2888-24.55989-45.3164-38.28298-74.1566-43.98892-31.1498-5.53508-63.1838-2.37386-94.6882-3.6726-20.6293-0.082-41.2589-0.10176-61.8882-0.0461zm79.6288 84.49918c19.6267 1.67422 40.5826-2.63375 59.234 4.84038 18.765 7.9029 24.713 31.63402 18.9536 49.6955-3.2675 13.45547-21.4744 26.33194-28.3272 26.62461-26.3403-0.76507-53.2348 3.05992-79.2359-1.01132-16.8659-6.25898-14.3796-26.80431-14.5941-41.17892 0.5529-12.18773-2.1101-31.43709 12.9244-36.23747 10.0488-3.05468 20.6761-2.56182 31.0452-2.73278z" style="font-variation-settings:'wght' 700;paint-order:markers stroke fill"/>
  </g>
  <path d="m651.32037 491.18428c-16.13101 0.28799-34.62992 0.69409-45.51019 14.70462-15.68785 13.97474-15.52756 38.81967-6.65602 56.37771 10.50306 16.1755 30.00254 23.9579 48.87192 22.30402 18.20669 0.17145 39.07645 1.44029 52.70154-13.12112 20.42836-17.37723 19.3832-52.99364-2.36966-68.86991-11.9117-12.71759-31.20895-11.05426-47.03759-11.39532z" fill="#3052ff" style="font-variation-settings:'wght' 700;paint-order:markers stroke fill"/>
 </g>
</svg>
