<?xml version="1.0" encoding="UTF-8"?>
<svg width="216.53438mm" height="175.93697mm" version="1.1" viewBox="0 0 216.53438 175.93697" xmlns="http://www.w3.org/2000/svg" preserveAspectRatio="none">
 <g transform="translate(1.3191382,-57.20035)">
  <path vector-effect="non-scaling-stroke" d="m30.17989 178.4462c-0.05565-2.8097-0.05565-5.62049 0-8.43019 0.03121-1.57589 0.07843-3.16894-0.24794-4.71098-0.386904-1.82805-1.301319-3.53465-2.572814-4.90386-1.271495-1.36922-2.893629-2.40194-4.656158-3.02238-3.525056-1.2409-7.533016-0.78784-10.879016 0.87653-3.3459996 1.66437-6.0505335 4.46588-7.9489523 7.68486-1.8984188 3.21899-3.0268921 6.84584-3.6966397 10.52243-1.5007538 8.2384-0.72537154 16.87539 2.1883339 24.72612 2.9137054 7.85072 7.9546321 14.89589 14.424027 20.21289 6.469396 5.31699 14.349037 8.89548 22.604359 10.30018 8.255323 1.40469 16.86662 0.63578 24.75349-2.17861 13.127064-4.68433 24.016857-15.10967 29.601193-27.87987s5.878584-27.69226 1.144157-40.80134c-3.678867-10.18636-10.168397-19.13591-14.265741-29.16126-2.048672-5.01268-3.495622-10.33567-3.572049-15.75029-0.07643-5.41462 1.289969-10.941 4.4487-15.33945 2.297726-3.199526 5.491273-5.725762 9.076147-7.358302s7.550764-2.381738 11.489313-2.315957c7.8771 0.131562 15.47426 3.503198 21.62544 8.425507 6.15117 4.922312 10.96804 11.325812 15.04727 18.065682 4.07923 6.73988 7.47842 13.86461 11.24937 20.78169s7.95831 13.68545 13.38864 19.39312c5.43034 5.70766 12.20552 10.33661 19.85341 12.22759 3.82394 0.94548 7.83381 1.19303 11.72477 0.57906 3.89096-0.61396 7.65853-2.10018 10.83672-4.42732 3.17819-2.32715 5.75209-5.50348 7.23735-9.15184 1.48527-3.64835 1.85791-7.76344 0.91328-11.5876-0.91871-3.71922-3.04844-7.08233-5.79595-9.75213-2.74752-2.6698-6.09529-4.67124-9.62995-6.14868-7.06932-2.95488-14.79543-3.83999-22.31526-5.30923-7.51984-1.46923-15.20007-3.69453-20.96177-8.74522-2.88085-2.52534-5.20779-5.74211-6.39112-9.38579-1.18332-3.64368-1.1694-7.720906 0.34174-11.24129 1.3024-3.034094 3.69407-5.579089 6.62102-7.107138 2.92695-1.52805 6.36637-2.036447 9.61833-1.464872s6.30007 2.212626 8.60034 4.581325c2.30026 2.3687 3.84723 5.449567 4.41798 8.701675 0.50912 2.90094 0.25159 5.91554-0.59944 8.73518-0.85104 2.81964-2.28553 5.44736-4.07863 7.7839-3.58621 4.67307-8.52814 8.12893-13.66996 11.00298-23.19271 12.96369-52.22346 14.95216-76.967177 5.27189-24.743716-9.68028-44.718152-30.84062-52.956813-56.10094v-18.84392" fill="none"/>
 </g>
</svg>
